<svg width="104" height="600" viewBox="0 0 104 600" fill="none" xmlns="http://www.w3.org/2000/svg">
<mask id="path-1-inside-1_534_5586" fill="white">
<path d="M104 0H0V600H104V0Z"/>
</mask>
<path d="M104 0H0V600H104V0Z" fill="white"/>
<path d="M104 0H104.5V2H104H103.5V0H104ZM104 6H104.5V10H104H103.5V6H104ZM104 14H104.5V18H104H103.5V14H104ZM104 22H104.5V26H104H103.5V22H104ZM104 30H104.5V34H104H103.5V30H104ZM104 38H104.5V42H104H103.5V38H104ZM104 46H104.5V50H104H103.5V46H104ZM104 54H104.5V58H104H103.5V54H104ZM104 62H104.5V66H104H103.5V62H104ZM104 70H104.5V74H104H103.5V70H104ZM104 78H104.5V82H104H103.5V78H104ZM104 86H104.5V90H104H103.5V86H104ZM104 94H104.5V98H104H103.5V94H104ZM104 102H104.5V106H104H103.5V102H104ZM104 110H104.5V114H104H103.5V110H104ZM104 118H104.5V122H104H103.5V118H104ZM104 126H104.5V130H104H103.5V126H104ZM104 134H104.5V138H104H103.5V134H104ZM104 142H104.5V146H104H103.5V142H104ZM104 150H104.5V154H104H103.5V150H104ZM104 158H104.5V162H104H103.5V158H104ZM104 166H104.5V170H104H103.5V166H104ZM104 174H104.5V178H104H103.5V174H104ZM104 182H104.5V186H104H103.5V182H104ZM104 190H104.5V194H104H103.5V190H104ZM104 198H104.5V202H104H103.5V198H104ZM104 206H104.5V210H104H103.5V206H104ZM104 214H104.5V218H104H103.5V214H104ZM104 222H104.5V226H104H103.5V222H104ZM104 230H104.5V234H104H103.5V230H104ZM104 238H104.5V242H104H103.5V238H104ZM104 246H104.5V250H104H103.5V246H104ZM104 254H104.5V258H104H103.5V254H104ZM104 262H104.5V266H104H103.5V262H104ZM104 270H104.5V274H104H103.5V270H104ZM104 278H104.5V282H104H103.5V278H104ZM104 286H104.5V290H104H103.5V286H104ZM104 294H104.5V298H104H103.5V294H104ZM104 302H104.5V306H104H103.5V302H104ZM104 310H104.5V314H104H103.5V310H104ZM104 318H104.5V322H104H103.5V318H104ZM104 326H104.5V330H104H103.5V326H104ZM104 334H104.5V338H104H103.5V334H104ZM104 342H104.5V346H104H103.5V342H104ZM104 350H104.5V354H104H103.5V350H104ZM104 358H104.5V362H104H103.5V358H104ZM104 366H104.5V370H104H103.5V366H104ZM104 374H104.5V378H104H103.5V374H104ZM104 382H104.5V386H104H103.5V382H104ZM104 390H104.5V394H104H103.5V390H104ZM104 398H104.5V402H104H103.5V398H104ZM104 406H104.5V410H104H103.5V406H104ZM104 414H104.5V418H104H103.5V414H104ZM104 422H104.5V426H104H103.5V422H104ZM104 430H104.5V434H104H103.5V430H104ZM104 438H104.5V442H104H103.5V438H104ZM104 446H104.5V450H104H103.5V446H104ZM104 454H104.5V458H104H103.5V454H104ZM104 462H104.5V466H104H103.5V462H104ZM104 470H104.5V474H104H103.5V470H104ZM104 478H104.5V482H104H103.5V478H104ZM104 486H104.5V490H104H103.5V486H104ZM104 494H104.5V498H104H103.5V494H104ZM104 502H104.5V506H104H103.5V502H104ZM104 510H104.5V514H104H103.5V510H104ZM104 518H104.5V522H104H103.5V518H104ZM104 526H104.5V530H104H103.5V526H104ZM104 534H104.5V538H104H103.5V534H104ZM104 542H104.5V546H104H103.5V542H104ZM104 550H104.5V554H104H103.5V550H104ZM104 558H104.5V562H104H103.5V558H104ZM104 566H104.5V570H104H103.5V566H104ZM104 574H104.5V578H104H103.5V574H104ZM104 582H104.5V586H104H103.5V582H104ZM104 590H104.5V594H104H103.5V590H104ZM104 598H104.5V600H104H103.5V598H104ZM0 600H-0.5V598H0H0.5V600H0ZM0 594H-0.5V590H0H0.5V594H0ZM0 586H-0.5V582H0H0.5V586H0ZM0 578H-0.5V574H0H0.5V578H0ZM0 570H-0.5V566H0H0.5V570H0ZM0 562H-0.5V558H0H0.5V562H0ZM0 554H-0.5V550H0H0.5V554H0ZM0 546H-0.5V542H0H0.5V546H0ZM0 538H-0.5V534H0H0.5V538H0ZM0 530H-0.5V526H0H0.5V530H0ZM0 522H-0.5V518H0H0.5V522H0ZM0 514H-0.5V510H0H0.5V514H0ZM0 506H-0.5V502H0H0.5V506H0ZM0 498H-0.5V494H0H0.5V498H0ZM0 490H-0.5V486H0H0.5V490H0ZM0 482H-0.5V478H0H0.5V482H0ZM0 474H-0.5V470H0H0.5V474H0ZM0 466H-0.5V462H0H0.5V466H0ZM0 458H-0.5V454H0H0.5V458H0ZM0 450H-0.5V446H0H0.5V450H0ZM0 442H-0.5V438H0H0.5V442H0ZM0 434H-0.5V430H0H0.5V434H0ZM0 426H-0.5V422H0H0.5V426H0ZM0 418H-0.5V414H0H0.5V418H0ZM0 410H-0.5V406H0H0.5V410H0ZM0 402H-0.5V398H0H0.5V402H0ZM0 394H-0.5V390H0H0.5V394H0ZM0 386H-0.5V382H0H0.5V386H0ZM0 378H-0.5V374H0H0.5V378H0ZM0 370H-0.5V366H0H0.5V370H0ZM0 362H-0.5V358H0H0.5V362H0ZM0 354H-0.5V350H0H0.5V354H0ZM0 346H-0.5V342H0H0.5V346H0ZM0 338H-0.5V334H0H0.5V338H0ZM0 330H-0.5V326H0H0.5V330H0ZM0 322H-0.5V318H0H0.5V322H0ZM0 314H-0.5V310H0H0.5V314H0ZM0 306H-0.5V302H0H0.5V306H0ZM0 298H-0.5V294H0H0.5V298H0ZM0 290H-0.5V286H0H0.5V290H0ZM0 282H-0.5V278H0H0.5V282H0ZM0 274H-0.5V270H0H0.5V274H0ZM0 266H-0.5V262H0H0.5V266H0ZM0 258H-0.5V254H0H0.5V258H0ZM0 250H-0.5V246H0H0.5V250H0ZM0 242H-0.5V238H0H0.5V242H0ZM0 234H-0.5V230H0H0.5V234H0ZM0 226H-0.5V222H0H0.5V226H0ZM0 218H-0.5V214H0H0.5V218H0ZM0 210H-0.5V206H0H0.5V210H0ZM0 202H-0.5V198H0H0.5V202H0ZM0 194H-0.5V190H0H0.5V194H0ZM0 186H-0.5V182H0H0.5V186H0ZM0 178H-0.5V174H0H0.5V178H0ZM0 170H-0.5V166H0H0.5V170H0ZM0 162H-0.5V158H0H0.5V162H0ZM0 154H-0.5V150H0H0.5V154H0ZM0 146H-0.5V142H0H0.5V146H0ZM0 138H-0.5V134H0H0.5V138H0ZM0 130H-0.5V126H0H0.5V130H0ZM0 122H-0.5V118H0H0.5V122H0ZM0 114H-0.5V110H0H0.5V114H0ZM0 106H-0.5V102H0H0.5V106H0ZM0 98H-0.5V94H0H0.5V98H0ZM0 90H-0.5V86H0H0.5V90H0ZM0 82H-0.5V78H0H0.5V82H0ZM0 74H-0.5V70H0H0.5V74H0ZM0 66H-0.5V62H0H0.5V66H0ZM0 58H-0.5V54H0H0.5V58H0ZM0 50H-0.5V46H0H0.5V50H0ZM0 42H-0.5V38H0H0.5V42H0ZM0 34H-0.5V30H0H0.5V34H0ZM0 26H-0.5V22H0H0.5V26H0ZM0 18H-0.5V14H0H0.5V18H0ZM0 9.99999H-0.5V5.99999H0H0.5V9.99999H0ZM0 2H-0.5V0H0H0.5V2H0ZM104 0H105V2H104H103V0H104ZM104 6H105V10H104H103V6H104ZM104 14H105V18H104H103V14H104ZM104 22H105V26H104H103V22H104ZM104 30H105V34H104H103V30H104ZM104 38H105V42H104H103V38H104ZM104 46H105V50H104H103V46H104ZM104 54H105V58H104H103V54H104ZM104 62H105V66H104H103V62H104ZM104 70H105V74H104H103V70H104ZM104 78H105V82H104H103V78H104ZM104 86H105V90H104H103V86H104ZM104 94H105V98H104H103V94H104ZM104 102H105V106H104H103V102H104ZM104 110H105V114H104H103V110H104ZM104 118H105V122H104H103V118H104ZM104 126H105V130H104H103V126H104ZM104 134H105V138H104H103V134H104ZM104 142H105V146H104H103V142H104ZM104 150H105V154H104H103V150H104ZM104 158H105V162H104H103V158H104ZM104 166H105V170H104H103V166H104ZM104 174H105V178H104H103V174H104ZM104 182H105V186H104H103V182H104ZM104 190H105V194H104H103V190H104ZM104 198H105V202H104H103V198H104ZM104 206H105V210H104H103V206H104ZM104 214H105V218H104H103V214H104ZM104 222H105V226H104H103V222H104ZM104 230H105V234H104H103V230H104ZM104 238H105V242H104H103V238H104ZM104 246H105V250H104H103V246H104ZM104 254H105V258H104H103V254H104ZM104 262H105V266H104H103V262H104ZM104 270H105V274H104H103V270H104ZM104 278H105V282H104H103V278H104ZM104 286H105V290H104H103V286H104ZM104 294H105V298H104H103V294H104ZM104 302H105V306H104H103V302H104ZM104 310H105V314H104H103V310H104ZM104 318H105V322H104H103V318H104ZM104 326H105V330H104H103V326H104ZM104 334H105V338H104H103V334H104ZM104 342H105V346H104H103V342H104ZM104 350H105V354H104H103V350H104ZM104 358H105V362H104H103V358H104ZM104 366H105V370H104H103V366H104ZM104 374H105V378H104H103V374H104ZM104 382H105V386H104H103V382H104ZM104 390H105V394H104H103V390H104ZM104 398H105V402H104H103V398H104ZM104 406H105V410H104H103V406H104ZM104 414H105V418H104H103V414H104ZM104 422H105V426H104H103V422H104ZM104 430H105V434H104H103V430H104ZM104 438H105V442H104H103V438H104ZM104 446H105V450H104H103V446H104ZM104 454H105V458H104H103V454H104ZM104 462H105V466H104H103V462H104ZM104 470H105V474H104H103V470H104ZM104 478H105V482H104H103V478H104ZM104 486H105V490H104H103V486H104ZM104 494H105V498H104H103V494H104ZM104 502H105V506H104H103V502H104ZM104 510H105V514H104H103V510H104ZM104 518H105V522H104H103V518H104ZM104 526H105V530H104H103V526H104ZM104 534H105V538H104H103V534H104ZM104 542H105V546H104H103V542H104ZM104 550H105V554H104H103V550H104ZM104 558H105V562H104H103V558H104ZM104 566H105V570H104H103V566H104ZM104 574H105V578H104H103V574H104ZM104 582H105V586H104H103V582H104ZM104 590H105V594H104H103V590H104ZM104 598H105V600H104H103V598H104ZM0 600H-1V598H0H1V600H0ZM0 594H-1V590H0H1V594H0ZM0 586H-1V582H0H1V586H0ZM0 578H-1V574H0H1V578H0ZM0 570H-1V566H0H1V570H0ZM0 562H-1V558H0H1V562H0ZM0 554H-1V550H0H1V554H0ZM0 546H-1V542H0H1V546H0ZM0 538H-1V534H0H1V538H0ZM0 530H-1V526H0H1V530H0ZM0 522H-1V518H0H1V522H0ZM0 514H-1V510H0H1V514H0ZM0 506H-1V502H0H1V506H0ZM0 498H-1V494H0H1V498H0ZM0 490H-1V486H0H1V490H0ZM0 482H-1V478H0H1V482H0ZM0 474H-1V470H0H1V474H0ZM0 466H-1V462H0H1V466H0ZM0 458H-1V454H0H1V458H0ZM0 450H-1V446H0H1V450H0ZM0 442H-1V438H0H1V442H0ZM0 434H-1V430H0H1V434H0ZM0 426H-1V422H0H1V426H0ZM0 418H-1V414H0H1V418H0ZM0 410H-1V406H0H1V410H0ZM0 402H-1V398H0H1V402H0ZM0 394H-1V390H0H1V394H0ZM0 386H-1V382H0H1V386H0ZM0 378H-1V374H0H1V378H0ZM0 370H-1V366H0H1V370H0ZM0 362H-1V358H0H1V362H0ZM0 354H-1V350H0H1V354H0ZM0 346H-1V342H0H1V346H0ZM0 338H-1V334H0H1V338H0ZM0 330H-1V326H0H1V330H0ZM0 322H-1V318H0H1V322H0ZM0 314H-1V310H0H1V314H0ZM0 306H-1V302H0H1V306H0ZM0 298H-1V294H0H1V298H0ZM0 290H-1V286H0H1V290H0ZM0 282H-1V278H0H1V282H0ZM0 274H-1V270H0H1V274H0ZM0 266H-1V262H0H1V266H0ZM0 258H-1V254H0H1V258H0ZM0 250H-1V246H0H1V250H0ZM0 242H-1V238H0H1V242H0ZM0 234H-1V230H0H1V234H0ZM0 226H-1V222H0H1V226H0ZM0 218H-1V214H0H1V218H0ZM0 210H-1V206H0H1V210H0ZM0 202H-1V198H0H1V202H0ZM0 194H-1V190H0H1V194H0ZM0 186H-1V182H0H1V186H0ZM0 178H-1V174H0H1V178H0ZM0 170H-1V166H0H1V170H0ZM0 162H-1V158H0H1V162H0ZM0 154H-1V150H0H1V154H0ZM0 146H-1V142H0H1V146H0ZM0 138H-1V134H0H1V138H0ZM0 130H-1V126H0H1V130H0ZM0 122H-1V118H0H1V122H0ZM0 114H-1V110H0H1V114H0ZM0 106H-1V102H0H1V106H0ZM0 98H-1V94H0H1V98H0ZM0 90H-1V86H0H1V90H0ZM0 82H-1V78H0H1V82H0ZM0 74H-1V70H0H1V74H0ZM0 66H-1V62H0H1V66H0ZM0 58H-1V54H0H1V58H0ZM0 50H-1V46H0H1V50H0ZM0 42H-1V38H0H1V42H0ZM0 34H-1V30H0H1V34H0ZM0 26H-1V22H0H1V26H0ZM0 18H-1V14H0H1V18H0ZM0 9.99999H-1V5.99999H0H1V9.99999H0ZM0 2H-1V0H0H1V2H0Z" fill="#1A1919" fill-opacity="0.5" mask="url(#path-1-inside-1_534_5586)"/>
</svg>
