<svg width="72" height="72" viewBox="0 0 72 72" fill="none" xmlns="http://www.w3.org/2000/svg">
<path d="M29.5536 61.6765L10.9506 49.8382C7.24562 47.4805 7.24562 42.072 10.9506 39.7143L29.5536 27.876C33.4845 25.3746 38.5077 25.3746 42.4386 27.876L61.0416 39.7143C64.7466 42.0721 64.7466 47.4805 61.0416 49.8382L42.4386 61.6765C38.5077 64.1779 33.4845 64.1779 29.5536 61.6765Z" fill="#F7C923" stroke="#1A1919"/>
<path d="M29.5555 43.9011L10.9526 32.0628C7.24758 29.7051 7.24758 24.2966 10.9526 21.9389L29.5555 10.1007C33.4864 7.59926 38.5096 7.59926 42.4405 10.1007L61.0435 21.9389C64.7485 24.2967 64.7485 29.7051 61.0435 32.0628L42.4405 43.9011C38.5096 46.4025 33.4864 46.4025 29.5555 43.9011Z" stroke="#1A1919"/>
</svg>
