<svg width="64" height="64" viewBox="0 0 64 64" fill="none" xmlns="http://www.w3.org/2000/svg">
<path d="M59 46C59 47.1046 58.1046 48 57 48L7 48C5.89543 48 5 47.1046 5 46L5 41L59 41L59 46Z" fill="#F7C923"/>
<path d="M5.33301 41.334V6.93398C5.33301 6.05033 6.04935 5.33398 6.93301 5.33398H57.0663C57.9501 5.33398 58.6663 6.05033 58.6663 6.93398V41.334M5.33301 41.334V46.4007C5.33301 47.2844 6.04935 48.0007 6.93301 48.0007H57.0663C57.9501 48.0007 58.6663 47.2844 58.6663 46.4007V41.334M5.33301 41.334H58.6663M23.9997 58.6673H27.9997M27.9997 58.6673V48.0007M27.9997 58.6673H35.9997M35.9997 58.6673H39.9997M35.9997 58.6673V48.0007" stroke="#1A1919" stroke-linecap="round" stroke-linejoin="round"/>
</svg>
