<svg width="72" height="72" viewBox="0 0 72 72" fill="none" xmlns="http://www.w3.org/2000/svg">
<path d="M54.3672 33.7959H59.1223C62.9883 33.7959 66.1223 36.9299 66.1223 40.7959V45.8979C66.1223 49.7639 62.9883 52.8979 59.1223 52.8979H54.3672V33.7959Z" fill="#F7C923"/>
<path d="M17.6328 52.8979L12.8777 52.8979C9.01172 52.8979 5.87771 49.7639 5.87771 45.8979L5.87771 40.7959C5.87771 36.9299 9.01172 33.7959 12.8777 33.7959L17.6328 33.7959L17.6328 52.8979Z" fill="#F7C923"/>
<path d="M12 34.4994L10.5448 34.8633C7.87377 35.5311 6 37.9308 6 40.6842V46.3146C6 49.068 7.87377 51.4677 10.5448 52.1355L15.7634 53.4402C16.8995 53.7243 18 52.8651 18 51.6939V35.3049C18 34.1337 16.8995 33.2745 15.7634 33.5586L12 34.4994ZM12 34.4994V33C12 19.7452 22.7452 9 36 9C49.2549 9 60 19.7452 60 33V34.4994M60 34.4994L61.4553 34.8633C64.1262 35.5311 66 37.9308 66 40.6842V46.3146C66 49.068 64.1262 51.4677 61.4553 52.1355L60 52.4994M60 34.4994L56.2365 33.5586C55.1004 33.2745 54 34.1337 54 35.3049V51.6939C54 52.8651 55.1004 53.7243 56.2365 53.4402L60 52.4994M60 52.4994V54V55.5C60 58.8138 57.3138 61.5 54 61.5H45M45 61.5C45 59.0148 42.9852 57 40.5 57H31.5C29.0147 57 27 59.0148 27 61.5C27 63.9852 29.0147 66 31.5 66H40.5C42.9852 66 45 63.9852 45 61.5Z" stroke="#1A1919"/>
</svg>
