<svg width="72" height="72" viewBox="0 0 72 72" fill="none" xmlns="http://www.w3.org/2000/svg">
<path d="M25.352 9.12671H46.6478L47.6618 27.3802L42.0844 29.9154L35.4928 31.4366L29.9154 29.9154L24.3379 26.8732L25.352 9.12671Z" fill="#F7C923"/>
<path d="M65.4549 28.0925L60.3729 10.3055C60.1521 9.53277 59.4459 9 58.6422 9H46.5L47.9259 26.1113C47.9727 26.6713 48.2769 27.1771 48.7596 27.4649C49.9275 28.1609 52.2156 29.451 54 30C57.0474 30.9375 61.5024 30.5994 64.0395 30.2874C65.0946 30.1578 65.7471 29.1147 65.4549 28.0925Z" stroke="#1A1919"/>
<path d="M42 30C43.7025 29.4761 45.8637 28.2777 47.0727 27.5642C47.6484 27.2246 47.9652 26.5831 47.9097 25.9171L46.5 9H25.5L24.0902 25.9171C24.0347 26.5831 24.3517 27.2246 24.9272 27.5642C26.1362 28.2777 28.2975 29.4761 30 30C34.479 31.3782 37.521 31.3782 42 30Z" stroke="#1A1919"/>
<path d="M11.6265 10.3055L6.54449 28.0925C6.25244 29.1147 6.90491 30.1578 7.96001 30.2874C10.497 30.5994 14.9522 30.9375 17.9995 30C19.7838 29.451 22.072 28.1609 23.2398 27.4649C23.7225 27.1771 24.0269 26.6713 24.0736 26.1113L25.4995 9H13.3572C12.5536 9 11.8473 9.53277 11.6265 10.3055Z" stroke="#1A1919"/>
<path d="M9 30V57C9 60.3138 11.6863 63 15 63H57C60.3138 63 63 60.3138 63 57V30" stroke="#1A1919"/>
</svg>
