<svg width="72" height="72" viewBox="0 0 72 72" fill="none" xmlns="http://www.w3.org/2000/svg">
<path d="M6 33L14.4199 23.5276C16.6971 20.9658 19.9612 19.5 23.3888 19.5H24" stroke="#1A1919" stroke-linecap="round" stroke-linejoin="round"/>
<path d="M6 58.501L22.5 58.5001L34.5 49.501C34.5 49.501 36.9273 47.8585 40.5 45.0004C48 39.0007 40.5 29.5007 33 34.4992C26.8923 38.5696 21 42.001 21 42.001" stroke="#1A1919" stroke-linecap="round" stroke-linejoin="round"/>
<path d="M24 40.5V21C24 17.6863 26.6863 15 30 15H60C63.3138 15 66 17.6863 66 21V39C66 42.3138 63.3138 45 60 45H40.5" stroke="#1A1919"/>
<path d="M45 36C41.6862 36 39 33.3138 39 30C39 26.6863 41.6862 24 45 24C48.3138 24 51 26.6863 51 30C51 33.3138 48.3138 36 45 36Z" fill="#F7C923" stroke="#1A1919" stroke-linecap="round" stroke-linejoin="round"/>
<path d="M58.5 30.0299L58.53 29.9966" stroke="#1A1919" stroke-linecap="round" stroke-linejoin="round"/>
<path d="M31.5 30.0299L31.53 29.9966" stroke="#1A1919" stroke-linecap="round" stroke-linejoin="round"/>
</svg>
