<svg width="72" height="72" viewBox="0 0 72 72" fill="none" xmlns="http://www.w3.org/2000/svg">
<path d="M30.1503 31.8198L8.93705 53.0331C6.5939 55.3761 6.5939 59.1753 8.93705 61.5183C11.2802 63.8616 15.0792 63.8616 17.4223 61.5183L38.6355 40.3053" stroke="#1A1919" stroke-linecap="round" stroke-linejoin="round"/>
<path d="M51.5774 41.3982L63.2123 53.0331C65.5556 55.3761 65.5556 59.1753 63.2123 61.5183C60.8693 63.8616 57.0701 63.8616 54.7271 61.5183L36.1016 42.8931" stroke="#1A1919" stroke-linecap="round" stroke-linejoin="round"/>
<path d="M20.1986 17.7113L13.8347 19.8326L7.4707 9.22606L11.7133 4.9834L22.32 11.3474L20.1986 17.7113ZM20.1986 17.7113L28.6893 26.202L20.1986 17.7113Z" fill="#F7C923"/>
<path d="M20.1986 17.7113L13.8347 19.8326L7.4707 9.22606L11.7133 4.9834L22.32 11.3474L20.1986 17.7113ZM20.1986 17.7113L28.6893 26.202" stroke="#1A1919" stroke-linecap="round" stroke-linejoin="round"/>
<path d="M30.1516 31.8199C27.6202 25.3609 28.1151 16.8859 33.3337 11.6674C38.5522 6.44885 48.1828 5.30345 53.4862 8.48543L44.3641 17.6074L43.5163 26.9406L52.8493 26.0927L61.9714 16.9707C65.1535 22.274 64.0081 31.9048 58.7896 37.1233C53.5708 42.3418 45.0961 42.8368 38.6371 40.3051" stroke="#1A1919" stroke-linecap="round" stroke-linejoin="round"/>
</svg>
