<svg width="120" height="121" viewBox="0 0 120 121" fill="none" xmlns="http://www.w3.org/2000/svg">
<path d="M60.7345 91.9L66.653 62.9C66.938 61.5035 68.167 60.5 69.5925 60.5H100.407C101.833 60.5 103.062 61.5035 103.347 62.9L109.265 91.9C109.645 93.7595 108.224 95.5 106.326 95.5H63.674C61.776 95.5 60.355 93.7595 60.7345 91.9Z" stroke="#1A1919" stroke-width="1.5" stroke-linecap="round"/>
<path d="M35.7346 56.9L41.653 27.9001C41.9381 26.5033 43.1668 25.5 44.5924 25.5H75.4075C76.833 25.5 78.062 26.5033 78.347 27.9001L84.2655 56.9C84.645 58.7595 83.224 60.5 81.326 60.5H38.6741C36.7761 60.5 35.3551 58.7595 35.7346 56.9Z" fill="#F7C923" stroke="#1A1919" stroke-width="1.5" stroke-linecap="round"/>
<path d="M10.7346 91.9L16.653 62.9C16.9381 61.5035 18.1668 60.5 19.5924 60.5H50.4075C51.833 60.5 53.062 61.5035 53.347 62.9L59.2655 91.9C59.645 93.7595 58.224 95.5 56.326 95.5H13.6741C11.7761 95.5 10.3551 93.7595 10.7346 91.9Z" stroke="#1A1919" stroke-width="1.5" stroke-linecap="round"/>
</svg>
