<svg width="120" height="121" viewBox="0 0 120 121" fill="none" xmlns="http://www.w3.org/2000/svg">
<path d="M60 56C56.4 56.8 52.5 66.6667 51 71.5C57 74.3 65.5 72.6667 69 71.5C67.4 63.1 62.3333 57.6667 60 56Z" fill="#F7C923"/>
<path d="M60 73C76.5685 73 90 59.5685 90 43C90 26.4315 76.5685 13 60 13C43.4315 13 30 26.4315 30 43C30 59.5685 43.4315 73 60 73Z" stroke="#1A1919" stroke-width="1.5" stroke-linecap="round" stroke-linejoin="round"/>
<path d="M80 108C96.5685 108 110 94.5685 110 78C110 61.4315 96.5685 48 80 48C63.4315 48 50 61.4315 50 78C50 94.5685 63.4315 108 80 108Z" stroke="#1A1919" stroke-width="1.5" stroke-linecap="round" stroke-linejoin="round"/>
<path d="M40 108C56.5685 108 70 94.5685 70 78C70 61.4315 56.5685 48 40 48C23.4314 48 10 61.4315 10 78C10 94.5685 23.4314 108 40 108Z" stroke="#1A1919" stroke-width="1.5" stroke-linecap="round" stroke-linejoin="round"/>
</svg>
