<svg width="120" height="121" viewBox="0 0 120 121" fill="none" xmlns="http://www.w3.org/2000/svg">
<path d="M93 104.5C96.3136 104.5 99 101.366 99 97.5C99 93.6341 96.3136 90.5 93 90.5C89.6864 90.5 87 93.6341 87 97.5C87 101.366 89.6864 104.5 93 104.5Z" fill="#F7C923" stroke="#1A1919" stroke-width="1.5" stroke-linecap="round" stroke-linejoin="round"/>
<path d="M49 104.5C52.8659 104.5 56 101.366 56 97.5C56 93.6341 52.8659 90.5 49 90.5C45.134 90.5 42 93.6341 42 97.5C42 101.366 45.134 104.5 49 104.5Z" fill="#F7C923" stroke="#1A1919" stroke-width="1.5" stroke-linecap="round" stroke-linejoin="round"/>
<path d="M29.2 25.2692H104L95.2 73.5H38L29.2 25.2692ZM29.2 25.2692C28.4667 22.3461 24.8 16.5 16 16.5" stroke="#1A1919" stroke-width="1.5" stroke-linecap="round" stroke-linejoin="round"/>
<path d="M95 73.5H37.8H30.0154C22.1644 73.5 18 76.8201 18 82C18 87.1799 22.1644 90.5 30.0154 90.5H92.8" stroke="#1A1919" stroke-width="1.5" stroke-linecap="round" stroke-linejoin="round"/>
</svg>
