<svg width="72" height="72" viewBox="0 0 72 72" fill="none" xmlns="http://www.w3.org/2000/svg">
<path d="M30.1512 31.8193L8.93803 53.0326C6.59488 55.3756 6.59488 59.1748 8.93803 61.5178C11.2811 63.8611 15.0801 63.8611 17.4233 61.5178L38.6364 40.3048" stroke="#1A1919" stroke-linecap="round" stroke-linejoin="round"/>
<path d="M51.5783 41.3984L63.2132 53.0333C65.5565 55.3763 65.5565 59.1755 63.2132 61.5185C60.8702 63.8618 57.071 63.8618 54.728 61.5185L36.1025 42.8933" stroke="#1A1919" stroke-linecap="round" stroke-linejoin="round"/>
<path d="M20.1976 17.7113L13.8337 19.8326L7.46973 9.22606L11.7124 4.9834L22.319 11.3474L20.1976 17.7113ZM20.1976 17.7113L28.6883 26.202L20.1976 17.7113Z" fill="#F7C923"/>
<path d="M20.1976 17.7113L13.8337 19.8326L7.46973 9.22606L11.7124 4.9834L22.319 11.3474L20.1976 17.7113ZM20.1976 17.7113L28.6883 26.202" stroke="#1A1919" stroke-linecap="round" stroke-linejoin="round"/>
<path d="M30.1506 31.8199C27.6192 25.3609 28.1142 16.8859 33.3327 11.6674C38.5512 6.44885 48.1818 5.30345 53.4852 8.48543L44.3631 17.6074L43.5153 26.9406L52.8483 26.0927L61.9704 16.9707C65.1525 22.274 64.0071 31.9048 58.7886 37.1233C53.5698 42.3418 45.0951 42.8368 38.6361 40.3051" stroke="#1A1919" stroke-linecap="round" stroke-linejoin="round"/>
</svg>
