<svg width="72" height="72" viewBox="0 0 72 72" fill="none" xmlns="http://www.w3.org/2000/svg">
<path d="M15.4951 51C16.3633 47.8536 17.5031 44.8455 18.8906 42M34.503 23.3834C36.8496 21.6834 39.3561 20.1784 42.003 18.8877" stroke="#1A1919" stroke-linecap="round" stroke-linejoin="round"/>
<path d="M13.5029 66.001C9.3608 66.001 6.00293 62.6431 6.00293 58.501C6.00293 54.3589 9.3608 51.001 13.5029 51.001C17.6451 51.001 21.0029 54.3589 21.0029 58.501C21.0029 62.6431 17.6451 66.001 13.5029 66.001Z" stroke="#1A1919" stroke-linecap="round" stroke-linejoin="round"/>
<path d="M28.4971 35.999C24.3549 35.999 20.9971 32.6411 20.9971 28.499C20.9971 24.3569 24.3549 20.999 28.4971 20.999C32.6392 20.999 35.9971 24.3569 35.9971 28.499C35.9971 32.6411 32.6392 35.999 28.4971 35.999Z" fill="#F7C923" stroke="#1A1919" stroke-linecap="round" stroke-linejoin="round"/>
<path d="M58.5029 21.001C54.3608 21.001 51.0029 17.6431 51.0029 13.501C51.0029 9.35885 54.3608 6.00098 58.5029 6.00098C62.645 6.00098 66.0029 9.35885 66.0029 13.501C66.0029 17.6431 62.645 21.001 58.5029 21.001Z" stroke="#1A1919" stroke-linecap="round" stroke-linejoin="round"/>
</svg>
