<svg width="72" height="72" viewBox="0 0 72 72" fill="none" xmlns="http://www.w3.org/2000/svg">
<path d="M36.0029 36C42.6302 36 48.0029 30.6273 48.0029 24C48.0029 17.3726 42.6302 12 36.0029 12C29.3755 12 24.0029 17.3726 24.0029 24C24.0029 30.6273 29.3755 36 36.0029 36Z" stroke="#1A1919" stroke-linecap="round" stroke-linejoin="round"/>
<path d="M66.0029 51.8394C66.0029 53.6436 65.2904 55.3764 64.0178 56.6583C61.0886 59.6103 58.2479 62.6883 55.2092 65.5329C54.5129 66.1755 53.408 66.1521 52.7414 65.4804L43.9874 56.6583C41.3414 53.9916 41.3414 49.6869 43.9874 47.0202C46.6595 44.3274 51.0125 44.3274 53.6843 47.0202L54.0026 47.3409L54.3206 47.0202C55.6019 45.7287 57.3467 45 59.1692 45C60.992 45 62.7368 45.7284 64.0178 47.0202C65.2904 48.3021 66.0029 50.0352 66.0029 51.8394Z" fill="#F7C923" stroke="#1A1919" stroke-linejoin="round"/>
<path d="M15.0029 60V57C15.0029 45.402 24.405 36 36.0029 36C39.2237 36 42.275 36.7251 45.0029 38.0208" stroke="#1A1919" stroke-linecap="round" stroke-linejoin="round"/>
</svg>
