<svg width="72" height="72" viewBox="0 0 72 72" fill="none" xmlns="http://www.w3.org/2000/svg">
<path d="M27.0039 66C38.6019 66 48.0039 56.598 48.0039 45C48.0039 33.402 38.6019 24 27.0039 24C15.4059 24 6.00391 33.402 6.00391 45C6.00391 56.598 15.4059 66 27.0039 66Z" stroke="#1A1919" stroke-linecap="round" stroke-linejoin="round"/>
<path d="M45.0039 48C56.6019 48 66.0039 38.598 66.0039 27C66.0039 15.402 56.6019 6 45.0039 6C33.4059 6 24.0039 15.402 24.0039 27C24.0039 38.598 33.4059 48 45.0039 48Z" stroke="#1A1919" stroke-linecap="round" stroke-linejoin="round"/>
<path d="M27.3732 24C38.7651 24 48 33.2345 48 44.6259C48 45.6921 47.9179 46.7393 47.7619 47.7619C46.7395 47.9178 45.6927 48 44.6268 48C33.2349 48 24 38.7655 24 27.3741C24 26.3076 24.081 25.26 24.2371 24.2371C25.2597 24.0811 26.307 24 27.3732 24Z" fill="#F7C923" stroke="#1A1919" stroke-linecap="round" stroke-linejoin="round"/>
</svg>
