<svg width="72" height="72" viewBox="0 0 72 72" fill="none" xmlns="http://www.w3.org/2000/svg">
<path d="M35.3048 65.25L35.3028 65.248C53.8059 65.248 71.317 65.25 35.3048 65.25ZM35.2988 6.75C30.1294 6.75183 25.6817 10.3237 22.5989 15.5866C19.4994 20.8785 17.6255 28.0989 17.6254 36C17.6254 43.9015 19.4992 51.1234 22.5989 56.4154C25.6816 61.6783 30.1294 65.2461 35.2988 65.248C19.5315 65.2443 6.75 52.1519 6.75 36C6.75036 19.8482 19.5317 6.75368 35.2988 6.75Z" fill="#F7C923"/>
<path d="M36.0039 66C52.5723 66 66.0039 52.5684 66.0039 36C66.0039 19.4315 52.5723 6 36.0039 6C19.4354 6 6.00391 19.4315 6.00391 36C6.00391 52.5684 19.4354 66 36.0039 66Z" stroke="#1A1919" stroke-linecap="round" stroke-linejoin="round"/>
<path d="M36 66C26.0589 66 18 52.5684 18 36C18 19.4315 26.0589 6 36 6" stroke="#1A1919" stroke-linecap="round" stroke-linejoin="round"/>
</svg>
